<?xml version="1.0" encoding="UTF-8"?>
<!-- Generator: visioncortex VTracer 0.6.2 -->
<svg version="1.1" xmlns="http://www.w3.org/2000/svg" width="1280" height="1280">
<path d="M0 0 C422.4 0 844.8 0 1280 0 C1280 422.4 1280 844.8 1280 1280 C857.6 1280 435.2 1280 0 1280 C0 857.6 0 435.2 0 0 Z " fill="#141D37" transform="translate(0,0)"/>
<path d="M0 0 C1.17212036 -0.00960754 2.34424072 -0.01921509 3.55187988 -0.02911377 C4.83091187 -0.03336365 6.10994385 -0.03761353 7.42773438 -0.04199219 C8.73673706 -0.04769226 10.04573975 -0.05339233 11.39440918 -0.05926514 C14.1753783 -0.06979141 16.95631843 -0.07562163 19.73730469 -0.07910156 C23.28005011 -0.08455287 26.82240465 -0.10850055 30.36502838 -0.13707352 C33.76092187 -0.16034123 37.1567654 -0.16216084 40.55273438 -0.16699219 C42.44699158 -0.18551239 42.44699158 -0.18551239 44.3795166 -0.20440674 C51.35075764 -0.18693349 57.09252845 0.41982134 63.52148438 3.16113281 C64.96974609 3.70447266 64.96974609 3.70447266 66.44726562 4.25878906 C67.23488281 4.5771875 68.0225 4.89558594 68.83398438 5.22363281 C70.03474609 5.70509766 70.03474609 5.70509766 71.25976562 6.19628906 C73.39431989 7.10688475 75.45875107 8.09908477 77.52148438 9.16113281 C77.52148438 9.82113281 77.52148438 10.48113281 77.52148438 11.16113281 C78.05773437 11.40863281 78.59398437 11.65613281 79.14648438 11.91113281 C85.05305016 15.01985165 89.70329758 18.664027 93.52148438 24.16113281 C93.52148438 24.82113281 93.52148438 25.48113281 93.52148438 26.16113281 C94.51148438 26.49113281 95.50148438 26.82113281 96.52148438 27.16113281 C98.14205416 29.68006193 99.60198094 32.15794329 101.02148438 34.78613281 C101.41207031 35.48609375 101.80265625 36.18605469 102.20507812 36.90722656 C104.5898331 41.23511523 106.6035657 45.6084768 108.52148438 50.16113281 C109.3275563 50.16699905 110.13362823 50.1728653 110.96412659 50.1789093 C118.62676358 50.23724065 126.28909025 50.30954134 133.95144749 50.39684772 C137.88907824 50.44123958 141.8266129 50.48056047 145.7644043 50.50756836 C149.57718426 50.53391753 153.38958797 50.57453179 157.20213127 50.62431908 C158.64384148 50.64077742 160.08561643 50.65242061 161.52740669 50.65874672 C183.73092369 50.76585247 183.73092369 50.76585247 192.52148438 55.16113281 C192.52148438 55.82113281 192.52148438 56.48113281 192.52148438 57.16113281 C193.75898437 57.47050781 193.75898437 57.47050781 195.02148438 57.78613281 C202.22944583 60.61783196 208.60866029 66.20433361 213.52148438 72.16113281 C213.52148438 72.82113281 213.52148438 73.48113281 213.52148438 74.16113281 C214.18148438 74.16113281 214.84148437 74.16113281 215.52148438 74.16113281 C216.81723309 76.38801257 218.10815745 78.61746456 219.39648438 80.84863281 C219.94369141 81.78739258 219.94369141 81.78739258 220.50195312 82.74511719 C226.41596968 93.01400048 226.67121657 102.29970648 226.66674805 113.97119141 C226.67178596 115.87007111 226.67178596 115.87007111 226.67692566 117.80731201 C226.68570615 121.25728066 226.68810102 124.70722446 226.68874145 128.1572032 C226.68945441 130.3134496 226.6915932 132.46968976 226.69423866 134.6259346 C226.70346661 142.14955291 226.70757604 149.67315356 226.70678711 157.19677734 C226.70618437 164.21106014 226.71678097 171.22526653 226.73253077 178.23952997 C226.74558459 184.26770177 226.75097204 190.29584849 226.7503317 196.32403433 C226.75007643 199.92229194 226.75294487 203.5204813 226.76350975 207.11872482 C226.77494514 211.12168426 226.77045734 215.12447025 226.7644043 219.12744141 C226.7700238 220.3232785 226.77564331 221.5191156 226.78143311 222.75119019 C226.77514137 224.3787323 226.77514137 224.3787323 226.76872253 226.03915405 C226.7692673 226.98558462 226.76981207 227.93201519 226.77037334 228.90712547 C226.52148438 231.16113281 226.52148438 231.16113281 224.52148438 233.16113281 C218.40407006 233.84084551 218.40407006 233.84084551 215.32567596 231.47005749 C213.14155818 228.67492005 213.02376045 227.35494614 213.02941895 223.84333801 C213.01722069 222.22646088 213.01722069 222.22646088 213.004776 220.57691956 C213.01609055 219.39919479 213.02740509 218.22147003 213.0390625 217.00805664 C213.03514999 215.76371857 213.03123749 214.51938049 213.02720642 213.23733521 C213.02122281 210.5321521 213.02241891 207.82807696 213.03562927 205.12302589 C213.05598898 200.83967268 213.04597735 196.55671824 213.03137207 192.27336121 C213.0023437 182.40148295 213.01304552 172.52972183 213.02407074 162.65782166 C213.03375991 153.62196599 213.03493266 144.58631939 213.00418997 135.55049914 C212.99086698 131.29942145 212.99670477 127.04894496 213.01755524 122.79790366 C213.02871229 119.51896499 213.01414393 116.24011266 213.00390625 112.96118164 C213.01522079 111.79357803 213.02653534 110.62597443 213.03819275 109.42298889 C212.98566236 102.36901971 211.85909152 97.35464116 208.52148438 91.16113281 C207.93154802 89.83070782 207.34728725 88.49773545 206.77148438 87.16113281 C202.2786782 78.41931615 195.30187497 72.37265737 186.52148438 68.16113281 C185.46896484 67.6501001 184.41644531 67.13906738 183.33203125 66.61254883 C176.79083934 64.20104865 169.74292184 64.67836516 162.86523438 64.64941406 C161.35207685 64.6325459 159.83893315 64.61439282 158.32580566 64.59501648 C154.36723148 64.54774188 150.40871338 64.51778749 146.44995117 64.49157715 C142.40076627 64.46165706 138.35177422 64.41516642 134.30273438 64.37011719 C126.37574631 64.28434096 118.44874024 64.2168824 110.52148438 64.16113281 C110.52517155 64.70575259 110.52885872 65.25037237 110.53265762 65.81149578 C110.62134046 79.11824655 110.68709812 92.42494492 110.72873306 105.73192883 C110.74954882 112.16734571 110.77775657 118.60254824 110.82324219 125.0378418 C110.86691429 131.25593974 110.89066663 137.47383235 110.90099335 143.69207191 C110.90834645 146.05657492 110.92270472 148.42106754 110.9444046 150.78548241 C111.19982062 179.78632306 111.19982062 179.78632306 103.20898438 189.59863281 C102.00174559 190.80841852 100.77313926 191.99736008 99.52148438 193.16113281 C98.998125 193.71414063 98.47476562 194.26714844 97.93554688 194.83691406 C92.32419587 200.35246152 84.33520906 203.17175548 76.52148438 203.66113281 C66.75191052 203.05180388 56.99132635 198.44864672 49.99804688 191.68847656 C43.60900999 184.42820737 41.43440689 177.65163146 41.31274414 168.10205078 C41.30296036 167.41007599 41.29317657 166.7181012 41.28309631 166.00515747 C41.25326502 163.7212307 41.2317728 161.43736295 41.21289062 159.15332031 C41.2063188 158.36521091 41.19974697 157.57710152 41.192976 156.76511002 C41.16041152 152.58056687 41.13597184 148.39604856 41.11645508 144.21142578 C41.09877445 140.78590567 41.06416799 137.36122948 41.01391602 133.93603516 C40.36635887 88.7419019 40.36635887 88.7419019 54.52148438 72.16113281 C54.988125 71.54882812 55.45476562 70.93652344 55.93554688 70.30566406 C58.19181841 67.39189008 60.14158854 65.6096596 63.52148438 64.16113281 C63.85148438 63.50113281 64.18148437 62.84113281 64.52148438 62.16113281 C65.51148438 61.85175781 66.50148438 61.54238281 67.52148438 61.22363281 C68.51148438 60.87300781 69.50148438 60.52238281 70.52148438 60.16113281 C70.85148438 59.17113281 71.18148437 58.18113281 71.52148438 57.16113281 C73.91992188 55.99316406 73.91992188 55.99316406 76.89648438 54.97363281 C77.87359375 54.62945313 78.85070312 54.28527344 79.85742188 53.93066406 C82.52148438 53.16113281 82.52148438 53.16113281 85.52148438 53.16113281 C87.85713371 52.8444346 90.19086258 52.51292478 92.52148438 52.16113281 C91.92409491 50.42961309 91.3182447 48.70101134 90.70898438 46.97363281 C90.37253906 46.01070312 90.03609375 45.04777344 89.68945312 44.05566406 C87.94092669 39.72235942 85.87101747 36.38183771 82.52148438 33.16113281 C81.73773437 32.17113281 80.95398438 31.18113281 80.14648438 30.16113281 C77.698872 27.36386152 75.72006913 25.93812434 72.52148438 24.16113281 C72.19148437 23.50113281 71.86148438 22.84113281 71.52148438 22.16113281 C69.0677498 20.86047781 69.0677498 20.86047781 66.08398438 19.66113281 C65.09527344 19.23832031 64.1065625 18.81550781 63.08789062 18.37988281 C54.69391974 15.51140645 46.60041748 14.86080185 37.77539062 14.89550781 C36.68363022 14.89359436 35.59186981 14.89168091 34.46702576 14.88970947 C32.17194384 14.88835633 29.87685405 14.89199148 27.58178711 14.90039062 C24.09731595 14.91109187 20.6133615 14.90047058 17.12890625 14.88769531 C14.88606659 14.88901726 12.64322724 14.89158039 10.40039062 14.89550781 C9.37297256 14.89145935 8.3455545 14.88741089 7.28700256 14.88323975 C-1.8823793 14.94175151 -10.83789707 15.48878184 -18.72851562 20.53613281 C-21.83878399 22.49756331 -24.83678467 24.35800429 -28.16601562 25.91113281 C-35.55771727 30.13237419 -40.73691332 38.65928814 -44.01757812 46.28613281 C-44.70609851 48.36765027 -44.70609851 48.36765027 -43.47851562 51.16113281 C-42.11726563 51.25394531 -42.11726563 51.25394531 -40.72851562 51.34863281 C-30.15855072 52.85555245 -20.72336912 58.56287183 -13.47851562 66.16113281 C-12.65867187 66.91523437 -12.65867187 66.91523437 -11.82226562 67.68457031 C-6.90820006 72.27534209 -3.69283049 77.28379546 -0.47851562 83.16113281 C-0.09695313 83.79664063 0.28460937 84.43214844 0.67773438 85.08691406 C6.78621252 95.8924417 6.98035823 108.74869386 6.91992188 120.83300781 C6.92195074 122.2912002 6.92486885 123.74939159 6.92861938 125.20758057 C6.93299908 128.23630612 6.92675081 131.26476312 6.91259766 134.29345703 C6.89544628 138.14853476 6.90541184 142.00298834 6.92331505 145.85804367 C6.93421951 148.85917767 6.9306773 151.86016657 6.92293167 154.86130524 C6.9209512 156.2820773 6.92331188 157.70286317 6.93037033 159.12361908 C6.98281761 172.63127083 5.01730347 183.00439204 -4.29492188 193.13769531 C-10.67686997 199.1973228 -18.82427535 202.70879359 -27.60351562 203.41113281 C-38.53037653 202.70617404 -48.49778875 197.96915918 -55.97460938 189.98925781 C-60.65117151 184.30450176 -62.58253123 178.77311649 -62.63000488 171.43525696 C-62.63834854 170.51413116 -62.6466922 169.59300537 -62.6552887 168.64396667 C-62.65947311 167.64585464 -62.66365753 166.64774261 -62.66796875 165.61938477 C-62.68040871 164.02839966 -62.68040871 164.02839966 -62.69309998 162.40527344 C-62.71047574 160.1059498 -62.72564927 157.80660871 -62.73887634 155.50725746 C-62.75992014 151.87272669 -62.78693945 148.23828411 -62.81555176 144.60380554 C-62.88534947 135.58100777 -62.94486891 126.5581475 -63.00457764 117.53527832 C-63.055441 109.90482472 -63.11023178 102.27441956 -63.1703949 94.64403343 C-63.1970352 91.05545347 -63.21780625 87.46686913 -63.23840332 83.87825012 C-63.25499923 81.69039695 -63.27187044 79.50254584 -63.2890625 77.31469727 C-63.29324692 76.31051254 -63.29743134 75.30632782 -63.30174255 74.27171326 C-63.31008621 73.35904694 -63.31842987 72.44638062 -63.32702637 71.50605774 C-63.33475697 70.31285903 -63.33475697 70.31285903 -63.34264374 69.09555531 C-63.36008925 67.07844787 -63.36008925 67.07844787 -64.47851562 65.16113281 C-72.07699267 65.11444527 -79.67545452 65.079081 -87.27404308 65.05750847 C-90.80375992 65.04714594 -94.33337742 65.03312761 -97.86303711 65.01025391 C-101.93669496 64.98402516 -106.01025124 64.97459792 -110.08398438 64.96582031 C-111.32931442 64.95549774 -112.57464447 64.94517517 -113.85771179 64.93453979 C-128.52192819 64.56979499 -128.52192819 64.56979499 -141.47851562 70.16113281 C-142.46851563 70.16113281 -143.45851563 70.16113281 -144.47851562 70.16113281 C-144.47851562 70.82113281 -144.47851562 71.48113281 -144.47851562 72.16113281 C-145.98242188 73.13378906 -145.98242188 73.13378906 -148.04101562 74.22363281 C-157.55330729 79.98151555 -161.89229883 89.62292024 -164.51307678 100.05496216 C-165.78924707 105.90081096 -165.76320378 111.64813722 -165.74975586 117.60986328 C-165.7549826 118.82555496 -165.76020935 120.04124664 -165.76559448 121.29377747 C-165.77579624 123.91944018 -165.78254811 126.544842 -165.78347588 129.17049789 C-165.7854285 133.32232655 -165.80354238 137.47399105 -165.82423401 141.62576294 C-165.87324112 151.92862435 -165.90435969 162.23152956 -165.92553711 172.53448486 C-165.94205321 180.56166318 -165.9648103 188.58869855 -166.00855786 196.61578095 C-166.03034233 200.74378321 -166.03839167 204.87151386 -166.03616512 208.99956965 C-166.03821943 212.1626956 -166.05956385 215.32570226 -166.07788086 218.48876953 C-166.07101509 220.20464516 -166.07101509 220.20464516 -166.06401062 221.95518494 C-166.07365845 222.99807175 -166.08330627 224.04095856 -166.09324646 225.115448 C-166.09525779 226.02278624 -166.09726912 226.93012447 -166.09934139 227.86495781 C-166.47851562 230.16113281 -166.47851562 230.16113281 -167.78384495 231.95305061 C-170.61552406 233.97167356 -173.1310542 233.51978939 -176.47851562 233.16113281 C-178.17387676 231.9593277 -178.17387676 231.9593277 -179.47851562 230.16113281 C-179.85324574 227.82369232 -179.85324574 227.82369232 -179.85273743 225.01501465 C-179.85975174 223.9497757 -179.86676605 222.88453674 -179.87399292 221.78701782 C-179.86634918 220.61819061 -179.85870544 219.4493634 -179.85083008 218.24511719 C-179.85448074 217.0138913 -179.85813141 215.78266541 -179.8618927 214.51412964 C-179.8686197 211.13331054 -179.86186581 207.75303989 -179.84856057 204.3722744 C-179.83723675 200.82732479 -179.84135482 197.28238926 -179.8433075 193.73742676 C-179.8441911 187.7754241 -179.83310395 181.81353498 -179.81469727 175.8515625 C-179.79360617 168.98126131 -179.79000282 162.11112736 -179.79625922 155.24080038 C-179.80198093 148.61626595 -179.79626934 141.99178982 -179.78508568 135.36726379 C-179.78046873 132.5573467 -179.77955326 129.74746561 -179.78167152 126.93754578 C-179.78392792 122.99573691 -179.7693523 119.05408283 -179.75317383 115.11230469 C-179.75565125 113.95967133 -179.75812866 112.80703796 -179.76068115 111.61947632 C-179.65427432 95.28182952 -175.27663035 82.4215561 -164.79101562 69.84863281 C-164.32767822 69.29127441 -163.86434082 68.73391602 -163.38696289 68.15966797 C-160.97909423 65.41190057 -159.23029084 63.48622809 -155.47851562 63.16113281 C-155.47851562 62.50113281 -155.47851562 61.84113281 -155.47851562 61.16113281 C-154.48851562 61.16113281 -153.49851562 61.16113281 -152.47851562 61.16113281 C-152.47851562 60.50113281 -152.47851562 59.84113281 -152.47851562 59.16113281 C-147.26575136 56.49118039 -142.04137217 54.01541833 -136.47851562 52.16113281 C-135.48851562 52.65613281 -135.48851562 52.65613281 -134.47851562 53.16113281 C-133.43115234 52.85578613 -132.38378906 52.55043945 -131.3046875 52.23583984 C-124.75712376 50.48765575 -117.98212314 50.91533142 -111.25976562 50.96582031 C-109.79146519 50.96955648 -108.32316223 50.9724006 -106.8548584 50.97439575 C-103.01453613 50.98198474 -99.17436826 51.00159179 -95.33410645 51.02380371 C-91.40570157 51.04436488 -87.47727144 51.05341931 -83.54882812 51.06347656 C-75.85865403 51.08484279 -68.16860657 51.11892059 -60.47851562 51.16113281 C-60.27804123 50.47596588 -60.07756683 49.79079895 -59.87101746 49.08486938 C-59.60509293 48.1852951 -59.3391684 47.28572083 -59.06518555 46.35888672 C-58.67166145 45.02176132 -58.67166145 45.02176132 -58.27018738 43.65762329 C-57.36147777 40.79206079 -56.19508319 38.19247686 -54.79101562 35.53613281 C-54.35402344 34.69824219 -53.91703125 33.86035156 -53.46679688 32.99707031 C-53.14066406 32.39121094 -52.81453125 31.78535156 -52.47851562 31.16113281 C-51.81851563 31.16113281 -51.15851563 31.16113281 -50.47851562 31.16113281 C-50.47851562 30.17113281 -50.47851562 29.18113281 -50.47851562 28.16113281 C-48.85877004 26.44883033 -47.18262103 24.7895002 -45.47851562 23.16113281 C-44.67414063 22.12988281 -43.86976563 21.09863281 -43.04101562 20.03613281 C-40.34704084 17.01362452 -38.09973708 15.85103616 -34.47851562 14.16113281 C-33.81851563 13.17113281 -33.15851563 12.18113281 -32.47851562 11.16113281 C-31.48851562 11.16113281 -30.49851562 11.16113281 -29.47851562 11.16113281 C-29.14851562 10.17113281 -28.81851563 9.18113281 -28.47851562 8.16113281 C-25.47851562 7.16113281 -25.47851562 7.16113281 -23.47851562 7.16113281 C-21.90044283 6.37930881 -20.34026224 5.56112754 -18.79101562 4.72363281 C-14.53486838 2.5338759 -11.21109604 1.56390561 -6.47851562 1.16113281 C-4.74089846 -0.57648436 -2.36551384 0.01558255 0 0 Z " fill="#F5F8FA" transform="translate(597.478515625,481.8388671875)"/>
<path d="M0 0 C10.22437179 9.74094996 14.04764911 22.23242649 14.515625 35.9453125 C14.78126552 51.70330882 13.41686178 65.01685267 2.6875 77.37109375 C-5.11099466 84.88839269 -14.82883516 86.03367883 -25.18359375 85.90893555 C-30.7447276 85.7139424 -35.66067785 85.02515599 -40.6875 82.5 C-41.533125 82.0875 -42.37875 81.675 -43.25 81.25 C-53.26251278 74.06152929 -58.24218903 66.739365 -60.6875 54.5 C-62.67367785 38.35429618 -62.55491018 20.93398975 -52.8125 7.1875 C-46.2812897 -0.93149827 -38.82051894 -4.55665513 -28.6484375 -6.21484375 C-19.13852351 -7.13070618 -7.7846924 -6.00286281 0 0 Z " fill="#F8FBFC" transform="translate(875.6875,760.5)"/>
<path d="M0 0 C11.09167598 7.96877692 18.52319079 17.78925826 21.01171875 31.4453125 C22.11086367 41.5411621 19.5890351 49.53810231 15.01171875 58.4453125 C14.35171875 58.4453125 13.69171875 58.4453125 13.01171875 58.4453125 C12.97046875 59.0021875 12.92921875 59.5590625 12.88671875 60.1328125 C11.57997814 63.58634126 8.86046508 65.27943757 6.01171875 67.4453125 C5.16609375 68.1465625 4.32046875 68.8478125 3.44921875 69.5703125 C-5.23257171 76.24861286 -14.33455808 75.97799866 -24.98828125 75.4453125 C-34.9945753 73.47686121 -42.78244353 68.45284505 -48.98828125 60.4453125 C-49.643125 59.83816406 -50.29796875 59.23101562 -50.97265625 58.60546875 C-56.66119794 52.50902776 -58.2579004 42.54512113 -57.98828125 34.4453125 C-56.54023483 23.84951131 -52.19531177 13.51247767 -43.98828125 6.4453125 C-43.32828125 5.7853125 -42.66828125 5.1253125 -41.98828125 4.4453125 C-40.99828125 4.4453125 -40.00828125 4.4453125 -38.98828125 4.4453125 C-38.98828125 3.7853125 -38.98828125 3.1253125 -38.98828125 2.4453125 C-37.40628494 1.79621096 -35.82262401 1.15116556 -34.23828125 0.5078125 C-33.3565625 0.14816406 -32.47484375 -0.21148437 -31.56640625 -0.58203125 C-22.5193583 -3.9952357 -8.60510542 -4.8350887 0 0 Z " fill="#151E38" transform="translate(523.98828125,420.5546875)"/>
<path d="M0 0 C0.94875 0.78375 1.8975 1.5675 2.875 2.375 C2.875 3.035 2.875 3.695 2.875 4.375 C3.865 4.705 4.855 5.035 5.875 5.375 C7.15625 7.23046875 7.15625 7.23046875 8.375 9.5625 C8.80296875 10.3771875 9.2309375 11.191875 9.671875 12.03125 C10.26742187 13.19140625 10.26742187 13.19140625 10.875 14.375 C11.4525 15.426875 12.03 16.47875 12.625 17.5625 C16.31501313 25.86502954 16.31387632 37.75395683 13.6875 46.375 C10.61771108 53.96420039 5.41544171 59.53124191 -1.125 64.375 C-2.115 64.705 -3.105 65.035 -4.125 65.375 C-4.125 66.035 -4.125 66.695 -4.125 67.375 C-5.176875 67.66375 -6.22875 67.9525 -7.3125 68.25 C-10.93226443 69.22675504 -10.93226443 69.22675504 -13.48046875 70.42578125 C-22.0893434 73.51582045 -31.74879191 71.19139052 -40.125 68.375 C-41.61 67.88 -41.61 67.88 -43.125 67.375 C-44.81433922 65.7313186 -46.47759924 64.0607124 -48.125 62.375 C-49.115 61.59125 -50.105 60.8075 -51.125 60 C-59.30156115 52.84550899 -62.45677812 43.98910497 -63.19140625 33.26953125 C-62.98214223 24.14808173 -59.81695472 13.66565009 -53.8125 6.6875 C-52.925625 5.924375 -52.03875 5.16125 -51.125 4.375 C-50.5990625 3.88257813 -50.073125 3.39015625 -49.53125 2.8828125 C-35.7562952 -9.70248711 -15.33410249 -10.29400904 0 0 Z " fill="#151E38" transform="translate(760.125,424.625)"/>
<path d="M0 0 C9.63226234 7.99272833 15.83440171 18.94364317 17.4453125 31.34765625 C17.69203247 39.43184717 16.34785956 46.11436183 12.9375 53.4375 C12.2775 53.4375 11.6175 53.4375 10.9375 53.4375 C10.82792969 54.02273438 10.71835937 54.60796875 10.60546875 55.2109375 C9.45231485 59.05478385 6.86592752 61.76488913 3.9375 64.4375 C0.5625 65.875 0.5625 65.875 -2.0625 66.4375 C-2.0625 67.0975 -2.0625 67.7575 -2.0625 68.4375 C-12.0274284 73.17745488 -22.42646648 75.20246762 -33.0625 71.4375 C-42.78409532 67.55512377 -53.20589435 60.96363715 -58.109375 51.39453125 C-61.61518761 40.7018028 -61.93170283 27.22577278 -57.38671875 16.828125 C-51.64416848 6.4610431 -43.55111364 -0.37180033 -32.546875 -4.71484375 C-21.6324028 -7.37004607 -9.85278225 -5.02692972 0 0 Z " fill="#141D37" transform="translate(643.0625,375.5625)"/>
<path d="M0 0 C3.2284763 -0.17499733 6.45572926 -0.28106618 9.6875 -0.375 C11.05551758 -0.45041016 11.05551758 -0.45041016 12.45117188 -0.52734375 C19.09459286 -0.67229112 19.09459286 -0.67229112 21.724823 1.2807312 C24.2449786 4.2484912 25.66335596 7.39000861 27 11 C28.55461302 13.997437 30.21809366 16.93314588 31.875 19.875 C32.30941406 20.65230469 32.74382812 21.42960938 33.19140625 22.23046875 C35.6698595 26.66320681 35.6698595 26.66320681 38.21191406 31.05957031 C41 35.8030011 41 35.8030011 41 38 C43.78978311 37.66643898 44.7985389 37.23839563 46.640625 35.05859375 C50.06983067 29.47364957 53.15922857 23.80696205 56.0625 17.9375 C56.40917725 17.25550537 56.75585449 16.57351074 57.11303711 15.87084961 C58.6402674 12.85231105 60.02073479 9.94256463 61.171875 6.75390625 C62.48064578 3.59403159 63.21019562 2.01564547 66 0 C72.15668041 -1.24057905 81.26126157 -1.86936922 87 1 C87 29.38 87 57.76 87 87 C81.39 87 75.78 87 70 87 C68.33376422 85.33376422 68.83259309 83.31241088 68.79467773 81.02124023 C68.7647599 79.42970375 68.7647599 79.42970375 68.73423767 77.80601501 C68.71752518 76.651866 68.70081268 75.49771698 68.68359375 74.30859375 C68.66281265 73.13361832 68.64203156 71.95864288 68.62062073 70.74806213 C68.55499876 66.97793676 68.4961817 63.20773918 68.4375 59.4375 C68.3943268 56.88866427 68.35071292 54.33983597 68.30664062 51.79101562 C68.19930455 45.52742108 68.0975621 39.26375399 68 33 C65.25157193 36.35899503 63.14827327 39.43883749 61.3125 43.375 C60.21274558 45.58553395 59.10811364 47.79364456 58 50 C57.67370605 50.66612305 57.34741211 51.33224609 57.01123047 52.01855469 C50.91773648 64.23966395 50.91773648 64.23966395 46.33984375 66.0546875 C41.58768994 66.18066507 38.53156595 65.23665439 35 62 C33.6484375 59.93359375 33.6484375 59.93359375 32.375 57.4375 C29.5609355 52.05533036 26.64919613 46.73934727 23.6875 41.4375 C22.81585692 39.87400404 21.94472777 38.3102214 21.07421875 36.74609375 C20.69869873 36.07247803 20.32317871 35.3988623 19.9362793 34.70483398 C19.26551525 33.48346623 18.62316348 32.24632695 18 31 C17.67 49.48 17.34 67.96 17 87 C11.72 87 6.44 87 1 87 C-0.78857062 85.21142938 -0.11990579 82.79876866 -0.12442017 80.41790771 C-0.12082489 79.61733948 -0.11722961 78.81677124 -0.11352539 77.99194336 C-0.11367142 77.15299026 -0.11381744 76.31403717 -0.1139679 75.44966125 C-0.1132685 72.66302956 -0.10547485 69.87646384 -0.09765625 67.08984375 C-0.09579217 65.16313209 -0.09436822 63.23641995 -0.09336853 61.30970764 C-0.08954259 56.22812603 -0.07971166 51.1465728 -0.06866455 46.06500244 C-0.05845206 40.88383366 -0.05387126 35.70266031 -0.04882812 30.52148438 C-0.03808946 20.34764375 -0.02101213 10.17382423 0 0 Z " fill="#F8FBFC" transform="translate(149,757)"/>
<path d="M0 0 C6.5647234 -0.07683342 10.28536054 0.94248589 16 4 C16.89203125 4.474375 17.7840625 4.94875 18.703125 5.4375 C30.67317202 12.39216419 36.98005746 21.91724057 41 35 C41.26860336 35.87016251 41.26860336 35.87016251 41.54263306 36.75790405 C42.15655952 39.76748325 42.16007439 42.64947278 42.19287109 45.72119141 C42.20513733 46.72209808 42.20513733 46.72209808 42.21765137 47.7432251 C42.2424087 49.94599537 42.25900019 52.14870141 42.2734375 54.3515625 C42.27876118 55.10769207 42.28408485 55.86382164 42.28956985 56.64286423 C42.31626491 60.64845514 42.33564774 64.65401534 42.35009766 68.65966797 C42.36340839 71.9594309 42.39121206 75.25857126 42.43212891 78.55810547 C42.48170514 82.55690673 42.50624912 86.55514579 42.51332474 90.55424118 C42.51999695 92.06997192 42.5351128 93.5856921 42.55921555 95.10124588 C42.69291363 104.01978679 42.29942724 111.47918959 37 119 C32.65575225 123.45563872 27.88330743 125.05105771 21.75 125.375 C15.28300953 125.21086319 9.22057417 123.16363637 4.5625 118.625 C4.046875 117.75875 3.53125 116.8925 3 116 C2.47979782 115.1781723 1.95959564 114.3563446 1.42362976 113.50961304 C-0.53757253 108.67474564 -0.39593332 104.38956408 -0.34057617 99.22119141 C-0.34101425 98.14742249 -0.34145233 97.07365356 -0.34190369 95.96734619 C-0.33981858 92.42856479 -0.31649989 88.89026085 -0.29296875 85.3515625 C-0.28737183 82.89391336 -0.28310218 80.43626087 -0.28010559 77.97860718 C-0.26866449 71.51770752 -0.23920329 65.05701096 -0.20599365 58.59619141 C-0.17527714 52.00035347 -0.16159685 45.40448264 -0.14648438 38.80859375 C-0.11433317 25.87230931 -0.06372406 12.93616547 0 0 Z " fill="#141D37" transform="translate(548,546)"/>
<path d="M0 0 C1.16585398 2.33170797 1.13306139 3.70250116 1.14717102 6.30023193 C1.15432632 7.20303894 1.16148163 8.10584595 1.16885376 9.03601074 C1.17154266 10.02927368 1.17423157 11.02253662 1.17700195 12.04589844 C1.18685875 13.61195831 1.18685875 13.61195831 1.19691467 15.20965576 C1.216679 18.67622951 1.22831742 22.14275987 1.23828125 25.609375 C1.24235678 26.79156868 1.2464323 27.97376236 1.25063133 29.19178009 C1.27150568 35.44914069 1.28580137 41.70647927 1.29516602 47.96386719 C1.30623179 54.43156056 1.34063017 60.89891002 1.38033772 67.36648178 C1.40646784 72.33531337 1.41485469 77.30406259 1.41844749 82.27295685 C1.42332294 84.65719169 1.43496402 87.04142263 1.45348549 89.42559052 C1.47779886 92.76284618 1.47692571 96.09920656 1.4699707 99.43652344 C1.48278076 100.42168945 1.49559082 101.40685547 1.50878906 102.421875 C1.46512312 108.17007297 0.80229759 111.41576493 -3 116 C-3.5775 116.886875 -4.155 117.77375 -4.75 118.6875 C-8.80977232 122.86004377 -13.70653964 124.13692516 -19.4375 124.4375 C-26.0844263 124.17391499 -31.68073282 121.53172141 -36.5 117 C-40.38179658 112.3418441 -40.12951963 108.80781862 -40.16113281 102.81982422 C-40.16609772 102.10378525 -40.17106262 101.38774628 -40.17617798 100.65000916 C-40.19076136 98.28489206 -40.19759692 95.91984215 -40.203125 93.5546875 C-40.20888173 91.9028422 -40.21463939 90.2509969 -40.22039795 88.59915161 C-40.23089855 85.13413178 -40.23674667 81.66913506 -40.24023438 78.20410156 C-40.24570236 73.78607252 -40.26969781 69.36835426 -40.29820633 64.95042229 C-40.31693023 61.53582907 -40.32204358 58.12130905 -40.32357025 54.70666885 C-40.32657781 53.07933996 -40.33454146 51.45201176 -40.34775543 49.82473373 C-40.45346877 35.79966678 -38.63025812 25.45741164 -30 14 C-24.03403001 8.03403001 -8.95653189 -3.6496881 0 0 Z " fill="#141D37" transform="translate(693,547)"/>
<path d="M0 0 C1.22332031 0.15082031 2.44664062 0.30164063 3.70703125 0.45703125 C8.87556212 1.54178464 12.96013107 3.34348346 16.375 7.4375 C16.84292969 7.97890625 17.31085937 8.5203125 17.79296875 9.078125 C21.75266848 15.06758678 22.69034901 20.08512887 22.625 27.125 C22.64498047 27.88490234 22.66496094 28.64480469 22.68554688 29.42773438 C22.67989216 36.04940685 20.82304617 41.25155824 16.37109375 46.2109375 C15.79488281 46.65695312 15.21867188 47.10296875 14.625 47.5625 C14.04621094 48.02398438 13.46742188 48.48546875 12.87109375 48.9609375 C8.44227707 52.1875 8.44227707 52.1875 5.1875 52.1875 C13.02229353 65.32773783 13.02229353 65.32773783 21.65234375 77.94921875 C23.69538072 80.92799785 25.42298823 84.03576947 27.1875 87.1875 C24.12351549 87.32280844 21.06552874 87.4217407 18 87.5 C17.13568359 87.54189453 16.27136719 87.58378906 15.38085938 87.62695312 C10.97362137 87.71138297 8.89174266 87.72856448 5.3046875 84.97265625 C4.60601563 84.05355469 3.90734375 83.13445312 3.1875 82.1875 C2.56488281 81.40632812 1.94226563 80.62515625 1.30078125 79.8203125 C-3.12849951 73.65198658 -7.39773138 67.392146 -11.57495117 61.05126953 C-13.5001522 57.96797033 -13.5001522 57.96797033 -15.8125 55.1875 C-18.4525 55.1875 -21.0925 55.1875 -23.8125 55.1875 C-23.8125 65.7475 -23.8125 76.3075 -23.8125 87.1875 C-26.596875 87.208125 -29.38125 87.22875 -32.25 87.25 C-33.12841553 87.259104 -34.00683105 87.26820801 -34.91186523 87.27758789 C-36.87895974 87.28473091 -38.84603621 87.23781893 -40.8125 87.1875 C-42.60107062 85.39892938 -41.93240579 82.98626866 -41.93692017 80.60540771 C-41.93332489 79.80483948 -41.92972961 79.00427124 -41.92602539 78.17944336 C-41.92617142 77.34049026 -41.92631744 76.50153717 -41.9264679 75.63716125 C-41.9257685 72.85052956 -41.91797485 70.06396384 -41.91015625 67.27734375 C-41.90829217 65.35063209 -41.90686822 63.42391995 -41.90586853 61.49720764 C-41.90204259 56.41562603 -41.89221166 51.3340728 -41.88116455 46.25250244 C-41.87095206 41.07133366 -41.86637126 35.89016031 -41.86132812 30.70898438 C-41.85058946 20.53514375 -41.83351213 10.36132423 -41.8125 0.1875 C-38.20851788 0.01668224 -34.60429221 -0.14836608 -31 -0.3125 C-29.99517578 -0.36019531 -28.99035156 -0.40789063 -27.95507812 -0.45703125 C-18.59427804 -0.87841775 -9.30851868 -1.21932673 0 0 Z " fill="#F8FBFC" transform="translate(946.8125,756.8125)"/>
<path d="M0 0 C1.8871875 -0.02126953 1.8871875 -0.02126953 3.8125 -0.04296875 C7 0.1875 7 0.1875 9 2.1875 C9.18806596 4.92854769 9.25178404 7.56774287 9.22705078 10.30908203 C9.22734283 11.14818115 9.22763489 11.98728027 9.22793579 12.85180664 C9.22653933 15.63307944 9.21096335 18.41408634 9.1953125 21.1953125 C9.19158349 23.12059381 9.18873599 25.04587701 9.18673706 26.97116089 C9.17909176 32.0445477 9.1594356 37.11782044 9.1373291 42.19116211 C9.11688995 47.36570696 9.10773948 52.54027019 9.09765625 57.71484375 C9.07619054 67.87244602 9.04204381 78.02996353 9 88.1875 C5.57964635 88.2892405 2.15968236 88.35136645 -1.26171875 88.40625 C-2.23137573 88.43557617 -3.20103271 88.46490234 -4.20007324 88.49511719 C-5.1352478 88.50639648 -6.07042236 88.51767578 -7.03393555 88.52929688 C-8.32366524 88.55679016 -8.32366524 88.55679016 -9.63945007 88.58483887 C-12.66762913 88.07512152 -13.80414572 86.96290476 -15.8125 84.6875 C-16.60420272 82.88029167 -17.3259306 81.04179922 -18 79.1875 C-18.86702027 77.45345946 -19.73580955 75.72015874 -20.62817383 73.99902344 C-21.66562483 71.98357857 -22.66290228 69.9515793 -23.65625 67.9140625 C-26.85099055 61.41528765 -30.24273434 55.01844088 -33.61181641 48.60888672 C-37.1621351 41.83986597 -40.57987603 35.02774795 -44 28.1875 C-44 47.9875 -44 67.7875 -44 88.1875 C-49.61 88.1875 -55.22 88.1875 -61 88.1875 C-62.78857062 86.39892938 -62.11990579 83.98626866 -62.12442017 81.60540771 C-62.12082489 80.80483948 -62.11722961 80.00427124 -62.11352539 79.17944336 C-62.11367142 78.34049026 -62.11381744 77.50153717 -62.1139679 76.63716125 C-62.1132685 73.85052956 -62.10547485 71.06396384 -62.09765625 68.27734375 C-62.09579217 66.35063209 -62.09436822 64.42391995 -62.09336853 62.49720764 C-62.08954259 57.41562603 -62.07971166 52.3340728 -62.06866455 47.25250244 C-62.05845206 42.07133366 -62.05387126 36.89016031 -62.04882812 31.70898438 C-62.03808946 21.53514375 -62.02101213 11.36132423 -62 1.1875 C-58.27189132 0.95457719 -54.54565008 0.81290876 -50.8125 0.6875 C-49.75740234 0.62046875 -48.70230469 0.5534375 -47.61523438 0.484375 C-39.94952159 0.29091853 -39.94952159 0.29091853 -37.21479797 2.87316895 C-35.91612465 4.9353692 -34.93297844 6.93914458 -34 9.1875 C-33.35581293 10.43134172 -32.70475582 11.67168243 -32.04296875 12.90625 C-31.42037683 14.16464534 -30.80199772 15.42513235 -30.1875 16.6875 C-29.4962079 18.08859799 -28.80479819 19.48963796 -28.11328125 20.890625 C-27.76475098 21.60025391 -27.4162207 22.30988281 -27.05712891 23.04101562 C-25.01738764 27.18267965 -22.943785 31.30748417 -20.87329102 35.43383789 C-19.30878845 38.55545779 -17.75562954 41.68126567 -16.234375 44.82421875 C-15.70328125 45.91347656 -15.1721875 47.00273438 -14.625 48.125 C-14.16351563 49.08277344 -13.70203125 50.04054688 -13.2265625 51.02734375 C-12.18629129 53.32642525 -12.18629129 53.32642525 -10 54.1875 C-9.67 36.6975 -9.34 19.2075 -9 1.1875 C-6.02958551 -0.29770725 -3.30235553 0.0169178 0 0 Z " fill="#F8FBFC" transform="translate(372,755.8125)"/>
<path d="M0 0 C0.98427291 0.97447915 1.94690674 1.97187273 2.875 3 C3.865 4.051875 3.865 4.051875 4.875 5.125 C5.875 7 5.875 7 5.6796875 8.921875 C4.64066212 11.60518326 3.34180211 12.48659632 1 14.125 C-0.04800781 14.87136719 -0.04800781 14.87136719 -1.1171875 15.6328125 C-2.77984948 16.76497533 -4.45130906 17.88420604 -6.125 19 C-10.89110169 15.26440678 -10.89110169 15.26440678 -12.5625 13.375 C-17.30358788 9.20284267 -23.92459269 9.6443723 -29.8515625 9.74609375 C-34.15978094 10.08026344 -38.3930401 10.71129232 -42.125 13 C-43.31926298 14.8989413 -43.31926298 14.8989413 -44.125 17 C-44.62 17.99 -45.115 18.98 -45.625 20 C-50.54998346 31.83503679 -50.15636284 45.98599666 -46.0625 58.01171875 C-44.63984065 61.02894212 -43.00508807 62.36358633 -40.125 64 C-39.114375 64.5775 -38.10375 65.155 -37.0625 65.75 C-28.91790047 68.97944905 -19.93857193 67.3148487 -12.125 64 C-12.09812721 62.18757948 -12.07866285 60.37504767 -12.0625 58.5625 C-12.05089844 57.55316406 -12.03929687 56.54382813 -12.02734375 55.50390625 C-11.83887324 53.05978933 -11.83887324 53.05978933 -13.125 52 C-16.74766294 51.71471529 -20.37030434 51.55087772 -24 51.37890625 C-25.546875 51.19134766 -25.546875 51.19134766 -27.125 51 C-28.62656874 47.99686252 -28.21781204 45.20932478 -28.1875 41.875 C-28.17847656 40.59367188 -28.16945313 39.31234375 -28.16015625 37.9921875 C-28.14855469 37.00476563 -28.13695312 36.01734375 -28.125 35 C-23.46191801 34.97531354 -18.79887392 34.95714651 -14.13574219 34.94506836 C-12.54882139 34.94003412 -10.96190523 34.93320631 -9.375 34.92456055 C-7.09634251 34.91245518 -4.81774624 34.90676267 -2.5390625 34.90234375 C-1.47179428 34.89460182 -1.47179428 34.89460182 -0.38296509 34.88670349 C4.64725659 34.88612829 4.64725659 34.88612829 6.875 36 C7.09815871 41.30164051 7.26108525 46.60052943 7.36938477 51.90576172 C7.41453797 53.70832952 7.47588058 55.51056956 7.55395508 57.31201172 C8.18562312 72.26561725 8.18562312 72.26561725 4.99633789 76.48608398 C2.63727452 78.09461382 0.57516882 79.09309607 -2.125 80 C-2.95378662 80.32500488 -3.78257324 80.65000977 -4.63647461 80.98486328 C-17.19898204 85.76292905 -33.59006945 85.95397994 -46.1875 81.390625 C-55.66661746 76.90317046 -62.11009222 71.33422465 -66.08203125 61.671875 C-70.38283651 48.23922296 -70.2812503 29.15156958 -65.125 16 C-64.79628906 15.12601563 -64.46757813 14.25203125 -64.12890625 13.3515625 C-60.61356519 5.25046512 -54.71962489 -0.4716643 -46.8125 -4.375 C-32.68166847 -9.88528959 -12.21220391 -10.13407678 0 0 Z " fill="#F8FBFC" transform="translate(1051.125,762)"/>
<path d="M0 0 C11.60740201 9.1834454 20.90212376 22.33098608 22.984375 37.29296875 C24.02537995 51.82111132 22.14521396 65.27338775 12.5 76.8125 C12.005 77.658125 11.51 78.50375 11 79.375 C7.86349736 84.47181679 5.0799145 85.9525285 -0.5 87.8125 C-0.995 89.2975 -0.995 89.2975 -1.5 90.8125 C-3.79296875 91.91015625 -3.79296875 91.91015625 -6.6875 92.875 C-7.62980469 93.19597656 -8.57210937 93.51695312 -9.54296875 93.84765625 C-10.51878906 94.16605469 -11.49460937 94.48445313 -12.5 94.8125 C-13.86511719 95.35583984 -13.86511719 95.35583984 -15.2578125 95.91015625 C-26.17333686 98.94809134 -39.45322575 97.90916182 -49.5 92.8125 C-50.45003906 92.35746094 -51.40007813 91.90242188 -52.37890625 91.43359375 C-54.77476647 90.26398744 -57.1438072 89.05959554 -59.5 87.8125 C-59.5 87.1525 -59.5 86.4925 -59.5 85.8125 C-60.221875 85.750625 -60.94375 85.68875 -61.6875 85.625 C-65.38399074 84.5571249 -67.03138868 82.70430184 -69.5 79.8125 C-69.5 79.1525 -69.5 78.4925 -69.5 77.8125 C-70.16 77.4825 -70.82 77.1525 -71.5 76.8125 C-80.11789865 65.51074148 -82.93804829 51.76583984 -81.5 37.8125 C-80.30166631 31.00091901 -78.92220585 24.27665025 -74.5 18.8125 C-74.17 17.8225 -73.84 16.8325 -73.5 15.8125 C-72.84 15.8125 -72.18 15.8125 -71.5 15.8125 C-71.5 14.8225 -71.5 13.8325 -71.5 12.8125 C-70.84 12.8125 -70.18 12.8125 -69.5 12.8125 C-69.40332031 12.2040625 -69.30664062 11.595625 -69.20703125 10.96875 C-68.34473919 8.33899743 -67.49191386 7.7731135 -65.1875 6.3125 C-63.03761125 4.93209421 -61.36483818 3.67154553 -59.5859375 1.81640625 C-44.40022028 -12.77211984 -16.58224918 -10.88290693 0 0 Z M-36.90234375 5.83203125 C-43.79025648 6.21234545 -49.80278337 10.13548724 -54.5859375 14.8828125 C-55.76015711 16.22548556 -56.91073879 17.58951368 -58.02734375 18.98046875 C-59.5 20.8125 -59.5 20.8125 -61.02734375 22.1796875 C-67.00874519 28.81158618 -68.91647385 40.15909888 -68.5 48.8125 C-66.61671536 59.71272323 -62.21131489 68.4577384 -53.25 75.0625 C-52.56421875 75.54203125 -51.8784375 76.0215625 -51.171875 76.515625 C-49.5 77.8125 -49.5 77.8125 -48.5 79.8125 C-46.29227376 80.69017996 -46.29227376 80.69017996 -43.6875 81.375 C-42.81480469 81.62378906 -41.94210937 81.87257813 -41.04296875 82.12890625 C-39.78419922 82.46728516 -39.78419922 82.46728516 -38.5 82.8125 C-37.86578125 83.00328125 -37.2315625 83.1940625 -36.578125 83.390625 C-33.72184906 83.97047049 -30.97500996 83.98316468 -28.0625 84 C-26.39380859 84.02126953 -26.39380859 84.02126953 -24.69140625 84.04296875 C-21.49327528 83.81201437 -19.39421594 83.12849416 -16.5 81.8125 C-14.17251306 81.12570058 -11.84013344 80.45488957 -9.5 79.8125 C-9.5 79.1525 -9.5 78.4925 -9.5 77.8125 C-8.63181641 77.41417969 -8.63181641 77.41417969 -7.74609375 77.0078125 C0.17057169 72.79476968 5.75967495 65.93611432 8.6171875 57.5234375 C10.83883653 48.18464732 11.0751215 35.95411934 6.1015625 27.41015625 C5.0784388 25.87047985 4.02609845 24.34957013 2.9375 22.85546875 C1.56503141 20.90492236 0.50824673 18.96956633 -0.5 16.8125 C-1.16 16.8125 -1.82 16.8125 -2.5 16.8125 C-2.5 16.1525 -2.5 15.4925 -2.5 14.8125 C-4.76796012 13.05290772 -4.76796012 13.05290772 -7.625 11.3125 C-8.57632813 10.7040625 -9.52765625 10.095625 -10.5078125 9.46875 C-19.10450451 4.71026774 -27.43910925 5.75509438 -36.90234375 5.83203125 Z " fill="#F5F8F9" transform="translate(765.5,412.1875)"/>
<path d="M0 0 C1.01578125 -0.01160156 2.0315625 -0.02320313 3.078125 -0.03515625 C16.47478576 0.01636937 25.4091078 4.33887889 35.19140625 13.40625 C45.82949793 24.56479626 51.77022331 37.96697465 52.4375 53.375 C52.1113067 64.12519651 48.14325252 73.68120068 42 82.375 C41.34 83.31601562 40.68 84.25703125 40 85.2265625 C34.8313871 92.0749746 29.81721227 95.94713152 22 99.375 C21.03578125 99.8596875 20.0715625 100.344375 19.078125 100.84375 C7.74251028 106.02245723 -5.3859646 106.48375047 -17.125 102.25 C-21.835136 100.15326854 -26.0709437 97.60110444 -30.1953125 94.51171875 C-32.06759642 93.10852051 -32.06759642 93.10852051 -35 93.375 C-35 92.715 -35 92.055 -35 91.375 C-35.5775 91.16875 -36.155 90.9625 -36.75 90.75 C-39.83714152 88.86341352 -41.08871677 86.42110765 -43 83.375 C-43.64582031 82.63121094 -44.29164063 81.88742187 -44.95703125 81.12109375 C-47.32100594 77.943514 -48.42662227 74.9968354 -49.6875 71.25 C-50.10386719 70.03054688 -50.52023437 68.81109375 -50.94921875 67.5546875 C-51.29597656 66.50539063 -51.64273438 65.45609375 -52 64.375 C-52.495 62.89 -52.495 62.89 -53 61.375 C-54.1732115 47.69743305 -53.16042291 33.02188979 -44.3984375 21.7890625 C-41.79198873 18.75585603 -38.96380665 16.05756952 -36 13.375 C-35.33355469 12.74078125 -34.66710937 12.1065625 -33.98046875 11.453125 C-24.07530686 2.4199751 -13.14011383 -0.15007744 0 0 Z M-30.74609375 26.21484375 C-39.3094967 36.65749723 -40.12295585 48.42045654 -39 61.375 C-37.92256511 69.00362384 -34.853002 74.37334375 -29 79.375 C-18.49109656 87.10784654 -8.7194748 92.46820423 4.7578125 91.09375 C9.84443009 90.16042567 14.3417738 88.60284731 19 86.375 C19 85.715 19 85.055 19 84.375 C19.845625 84.21 20.69125 84.045 21.5625 83.875 C26.24290152 81.83264297 29.17154673 78.6009435 32 74.375 C32 73.385 32 72.395 32 71.375 C32.66 71.375 33.32 71.375 34 71.375 C38.83458936 60.99358267 40.05543387 50.42124054 36.25195312 39.48486328 C32.50677029 29.91032769 27.11571721 21.64737436 18.15234375 16.3125 C0.37909665 8.57097676 -17.43201499 12.18591512 -30.74609375 26.21484375 Z " fill="#F6F9FA" transform="translate(622,357.625)"/>
<path d="M0 0 C6.4042451 4.56976422 11.53018327 9.2091453 15.6875 15.9375 C16.32921143 16.97535645 16.32921143 16.97535645 16.98388672 18.03417969 C25.05769918 31.77300857 26.43366515 47.08330377 22.55078125 62.44921875 C20.90893262 67.31372937 18.39332085 71.35264162 15.5 75.5625 C14.819375 76.655625 14.13875 77.74875 13.4375 78.875 C11.35766227 81.75993621 9.07727581 84.11739218 6.5 86.5625 C5.984375 87.119375 5.46875 87.67625 4.9375 88.25 C1.63463747 91.2656571 -2.88823517 92.54536558 -7 94.125 C-8.68609375 94.77662109 -8.68609375 94.77662109 -10.40625 95.44140625 C-16.23294 97.55284568 -21.27830189 97.74557847 -27.4375 97.75 C-28.77844727 97.76836914 -28.77844727 97.76836914 -30.14648438 97.78710938 C-34.76216238 97.79738928 -38.29458658 97.6469223 -42.5 95.5625 C-43.47195313 95.24410156 -44.44390625 94.92570312 -45.4453125 94.59765625 C-55.39208252 91.22694774 -62.01174214 86.77053705 -68.5 78.5625 C-69.01433594 78.04945313 -69.52867187 77.53640625 -70.05859375 77.0078125 C-78.32471086 68.71929399 -79.78988433 57.38076326 -79.9375 46.1875 C-79.82579412 32.53919465 -76.52733034 21.96222853 -67.5 11.5625 C-66.695625 10.60085938 -65.89125 9.63921875 -65.0625 8.6484375 C-58.05058333 0.90611284 -51.29874712 -2.36736853 -41.5 -5.4375 C-40.33984375 -5.80875 -39.1796875 -6.18 -37.984375 -6.5625 C-24.8652952 -9.85697744 -11.49554682 -6.82202008 0 0 Z M-48.5 11.5625 C-48.5 12.2225 -48.5 12.8825 -48.5 13.5625 C-49.36625 13.6553125 -49.36625 13.6553125 -50.25 13.75 C-53.41299331 14.89219203 -54.51408277 16.89392373 -56.5 19.5625 C-57.139375 20.119375 -57.77875 20.67625 -58.4375 21.25 C-65.2438512 28.88136346 -67.94618352 38.94717013 -67.375 49 C-66.3409039 57.47718313 -64.13300103 64.90018205 -57.5 70.5625 C-56.736875 71.5525 -55.97375 72.5425 -55.1875 73.5625 C-50.09117252 79.80027622 -42.31175626 83.27808725 -34.5 84.5625 C-24.49176552 85.39303786 -14.89739317 85.86498324 -6.5 79.5625 C-5.48579946 78.57690512 -4.48555706 77.57673729 -3.5 76.5625 C-1.65497349 75.04539041 0.20446408 73.54901303 2.07421875 72.0625 C3.84447393 70.5450121 3.84447393 70.5450121 3.5 67.5625 C4.16 67.5625 4.82 67.5625 5.5 67.5625 C6.31674796 65.81447854 7.12823451 64.06399811 7.9375 62.3125 C8.38996094 61.33796875 8.84242188 60.3634375 9.30859375 59.359375 C12.8419985 51.06456253 12.52458046 41.6004723 9.59765625 33.1328125 C5.22363849 22.89045064 -0.75853739 13.45961843 -11.1875 8.625 C-23.76146693 4.5918408 -36.72765568 5.67632784 -48.5 11.5625 Z " fill="#F5F8FA" transform="translate(533.5,411.4375)"/>
<path d="M0 0 C2.62506802 -0.02690844 5.24986173 -0.04679404 7.875 -0.0625 C8.62136719 -0.07087891 9.36773437 -0.07925781 10.13671875 -0.08789062 C15.7734375 -0.11328125 15.7734375 -0.11328125 18 1 C18.01213028 1.981465 18.01213028 1.981465 18.02450562 2.98275757 C18.11095906 9.8293511 18.21047777 16.67566859 18.31738281 23.52197266 C18.35552584 26.07270653 18.39040357 28.6234915 18.421875 31.17431641 C18.46784528 34.85337514 18.5257864 38.53208651 18.5859375 42.2109375 C18.59748871 43.34050873 18.60903992 44.47007996 18.62094116 45.63388062 C18.60080679 57.5414095 18.60080679 57.5414095 23.375 68 C29.63002393 72.76573252 35.27456707 72.74337296 43 72 C47.14819225 70.82385721 49.43240398 68.96578672 51.64990234 65.19262695 C53.89974201 59.55232657 53.46098345 53.45826626 53.4765625 47.48046875 C53.50036091 45.50242413 53.52416356 43.52437954 53.5482235 41.54633808 C53.57808822 38.79285655 53.5946094 36.0393548 53.61126709 33.2857666 C53.64294689 28.44537475 53.69383979 23.60515849 53.74765015 18.76496887 C53.77491684 16.19087861 53.79625056 13.61671758 53.81118774 11.04252625 C53.82144989 9.88404678 53.83171204 8.72556732 53.84228516 7.53198242 C53.84878082 6.50940842 53.85527649 5.48683441 53.86196899 4.43327332 C54 2 54 2 55 0 C57.62506802 -0.02690844 60.24986173 -0.04679404 62.875 -0.0625 C63.62136719 -0.07087891 64.36773437 -0.07925781 65.13671875 -0.08789062 C70.7734375 -0.11328125 70.7734375 -0.11328125 73 1 C73.05121855 8.2733251 73.08594842 15.54660273 73.10986328 22.82006836 C73.11984588 25.288185 73.13343668 27.75629004 73.15087891 30.22436523 C73.42512544 70.06270802 73.42512544 70.06270802 64.50390625 80.80078125 C56.55807124 88.47984962 47.00156134 89.37383685 36.4375 89.5 C35.468125 89.51853027 34.49875 89.53706055 33.5 89.55615234 C23.2093502 89.46713892 14.58556397 86.0074494 7 79 C4.76321298 76.35358451 3.43865939 73.97783096 2.375 70.6875 C2.13523437 69.96949219 1.89546875 69.25148438 1.6484375 68.51171875 C-0.32746471 60.85807346 -0.12999256 53.26933086 -0.09765625 45.41015625 C-0.0962413 44.11049423 -0.09482635 42.81083221 -0.09336853 41.4717865 C-0.08957334 38.03756747 -0.07976908 34.60339158 -0.06866455 31.16918945 C-0.05838555 27.65641869 -0.05385708 24.14364088 -0.04882812 20.63085938 C-0.03814376 13.75388867 -0.02110388 6.87694641 0 0 Z " fill="#F7FAFB" transform="translate(399,757)"/>
<path d="M0 0 C2.623748 2.82776458 4.88110436 5.77955928 7 9 C3.0299782 13.21814817 -1.30840284 16.61227103 -6 20 C-6.43570313 19.51789062 -6.87140625 19.03578125 -7.3203125 18.5390625 C-12.69359104 12.84013072 -16.55062019 10.9672529 -24.4375 10.6875 C-29.40908557 10.80958532 -32.84011531 11.19659945 -37 14 C-38.41349769 17.39418221 -38.41349769 17.39418221 -38 21 C-34.98766151 25.01140553 -31.34621826 26.14791845 -26.6875 27.4375 C-25.25496898 27.86377981 -23.82268303 28.2908839 -22.390625 28.71875 C-20.92727202 29.14647939 -19.4637318 29.57356875 -18 30 C-6.62301752 33.32313721 1.89802085 36.20419073 8 47 C10.29497356 53.80790813 10.42206362 64.07987011 7.3125 70.625 C2.28559792 78.78486571 -4.96845493 82.69195787 -14 85 C-17.32583366 85.39506309 -20.59135421 85.4309137 -23.9375 85.375 C-24.81704346 85.36484863 -25.69658691 85.35469727 -26.6027832 85.34423828 C-38.59498307 85.05719982 -47.15406206 81.38211816 -56.125 73.375 C-58 71 -58 71 -57.93359375 69.1171875 C-56.59640256 66.08472883 -54.55784734 64.74013722 -51.9375 62.75 C-51.01839844 62.04359375 -50.09929688 61.3371875 -49.15234375 60.609375 C-48.08693359 59.81273437 -48.08693359 59.81273437 -47 59 C-43.11084389 60.82967117 -39.73085759 63.20047816 -36.21875 65.66015625 C-32.22680094 68.07078746 -28.67564695 68.15841332 -24.0625 68.1875 C-22.53302734 68.20876953 -22.53302734 68.20876953 -20.97265625 68.23046875 C-17.89967181 67.9922216 -15.78789533 67.26894052 -13 66 C-12.01 65.67 -11.02 65.34 -10 65 C-9.68379927 59.72998781 -9.95881513 56.37930622 -13 52 C-15.87099259 50.48289192 -18.86977979 49.69864709 -22 48.875 C-23.72694246 48.37370292 -25.45350794 47.8711053 -27.1796875 47.3671875 C-28.01209961 47.13225586 -28.84451172 46.89732422 -29.70214844 46.65527344 C-39.63010348 43.82413964 -50.21567315 40.15851751 -56 31 C-58.6668472 22.89134297 -57.76181186 13.52362372 -54 6 C-49.16282599 -1.33916056 -42.2910685 -4.15623548 -34 -6 C-22.78436137 -7.81968014 -9.32705868 -7.18782504 0 0 Z " fill="#F8FBFC" transform="translate(693,761)"/>
<path d="M0 0 C7.79621694 -0.02528819 15.59242336 -0.04284068 23.38867188 -0.05493164 C26.04264725 -0.05997042 28.69661984 -0.06680151 31.35058594 -0.07543945 C35.15821011 -0.08752489 38.96579769 -0.09323275 42.7734375 -0.09765625 C43.96617279 -0.10281754 45.15890808 -0.10797882 46.38778687 -0.11329651 C47.48877716 -0.11337204 48.58976746 -0.11344757 49.72412109 -0.11352539 C51.1830629 -0.11685631 51.1830629 -0.11685631 52.67147827 -0.12025452 C55 0 55 0 57 1 C57 5.62 57 10.24 57 15 C44.13 15.33 31.26 15.66 18 16 C18.495 24.415 18.495 24.415 19 33 C22.21363281 33.07347656 22.21363281 33.07347656 25.4921875 33.1484375 C27.56403673 33.20242706 29.63576904 33.25974232 31.70751953 33.31738281 C33.1488374 33.35569674 34.59025168 33.39054543 36.03173828 33.421875 C38.10223886 33.46747446 40.17207433 33.52547444 42.2421875 33.5859375 C43.4885498 33.6173584 44.73491211 33.6487793 46.01904297 33.68115234 C49 34 49 34 51 36 C51.23046875 39.00390625 51.23046875 39.00390625 51.1875 42.5625 C51.18105469 43.73941406 51.17460938 44.91632812 51.16796875 46.12890625 C51 49 51 49 50 50 C47.6243148 50.0883967 45.27791326 50.11530305 42.90234375 50.09765625 C41.83905602 50.09553383 41.83905602 50.09553383 40.75428772 50.09336853 C38.48198288 50.08775443 36.20977525 50.07519963 33.9375 50.0625 C32.40039204 50.05748681 30.86328255 50.05292359 29.32617188 50.04882812 C25.55071333 50.0386297 21.77546596 50.01905732 18 50 C18.33 56.6 18.66 63.2 19 70 C21.57554688 70.06058594 24.15109375 70.12117187 26.8046875 70.18359375 C29.29348744 70.24536587 31.78224109 70.30876071 34.27099609 70.37231445 C36.00337626 70.4156808 37.73579963 70.45735463 39.46826172 70.49731445 C41.95553627 70.55497594 44.44259293 70.61868198 46.9296875 70.68359375 C47.70682098 70.70030624 48.48395447 70.71701874 49.28463745 70.73423767 C54.77225659 70.88612829 54.77225659 70.88612829 57 72 C57 76.95 57 81.9 57 87 C49.71578023 87.02255606 42.43157941 87.04091801 35.14733219 87.05181217 C31.76528187 87.05703975 28.3832566 87.06413511 25.0012207 87.07543945 C21.11670223 87.08834267 17.23219403 87.09322924 13.34765625 87.09765625 C12.12788589 87.10281754 10.90811554 87.10797882 9.65138245 87.11329651 C7.96975258 87.11340981 7.96975258 87.11340981 6.25415039 87.11352539 C5.26153702 87.115746 4.26892365 87.11796661 3.24623108 87.12025452 C1 87 1 87 0 86 C-0.25667438 82.9515956 -0.43494993 79.93016547 -0.5625 76.875 C-0.6042334 75.88234131 -0.6459668 74.88968262 -0.68896484 73.86694336 C-1.05678963 63.76677486 -1.11010443 53.66810061 -1.125 43.5625 C-1.1275882 42.77284851 -1.13017639 41.98319702 -1.13284302 41.1696167 C-1.16827189 27.4271315 -0.6513281 13.72580474 0 0 Z " fill="#F8FBFC" transform="translate(1076,757)"/>
<path d="M0 0 C7.28421548 -0.02312916 14.5684231 -0.04091801 21.85266781 -0.05181217 C25.23471813 -0.05703975 28.6167434 -0.06413511 31.9987793 -0.07543945 C35.88329777 -0.08834267 39.76780597 -0.09322924 43.65234375 -0.09765625 C44.87211411 -0.10281754 46.09188446 -0.10797882 47.34861755 -0.11329651 C49.03024742 -0.11340981 49.03024742 -0.11340981 50.74584961 -0.11352539 C51.73846298 -0.115746 52.73107635 -0.11796661 53.75376892 -0.12025452 C56 0 56 0 57 1 C57 5.62 57 10.24 57 15 C44.13 15.33 31.26 15.66 18 16 C18 21.61 18 27.22 18 33 C20.21460938 33.06058594 22.42921875 33.12117187 24.7109375 33.18359375 C26.85224855 33.24537576 28.99350634 33.30876649 31.13476562 33.37231445 C32.62462641 33.41566589 34.11453695 33.45734084 35.60449219 33.49731445 C37.74429327 33.55501215 39.88384385 33.61870755 42.0234375 33.68359375 C43.95582275 33.73858032 43.95582275 33.73858032 45.92724609 33.79467773 C49 34 49 34 51 35 C51 39.95 51 44.9 51 50 C40.44 50 29.88 50 19 50 C18.979375 53.114375 18.95875 56.22875 18.9375 59.4375 C18.928396 60.42032959 18.91929199 61.40315918 18.90991211 62.41577148 C18.90741455 63.18477783 18.90491699 63.95378418 18.90234375 64.74609375 C18.89710693 65.53685303 18.89187012 66.3276123 18.88647461 67.14233398 C18.79504091 69.01592689 18.79504091 69.01592689 20 70 C22.56820714 70.14767905 25.11299217 70.23497646 27.68359375 70.28125 C28.45429703 70.29965942 29.22500031 70.31806885 30.01905823 70.33703613 C32.49179231 70.39596475 34.96459665 70.44869595 37.4375 70.5 C40.686348 70.56754624 43.93496977 70.64124787 47.18359375 70.71875 C47.9357164 70.73232544 48.68783905 70.74590088 49.4627533 70.7598877 C54.77445026 70.88722513 54.77445026 70.88722513 57 72 C57 76.95 57 81.9 57 87 C49.71578023 87.02255606 42.43157941 87.04091801 35.14733219 87.05181217 C31.76528187 87.05703975 28.3832566 87.06413511 25.0012207 87.07543945 C21.11670223 87.08834267 17.23219403 87.09322924 13.34765625 87.09765625 C12.12788589 87.10281754 10.90811554 87.10797882 9.65138245 87.11329651 C7.96975258 87.11340981 7.96975258 87.11340981 6.25415039 87.11352539 C5.26153702 87.115746 4.26892365 87.11796661 3.24623108 87.12025452 C1 87 1 87 0 86 C-0.09512944 83.32212027 -0.12555279 80.67011131 -0.11352539 77.99194336 C-0.11367142 77.15299026 -0.11381744 76.31403717 -0.1139679 75.44966125 C-0.1132685 72.66302956 -0.10547485 69.87646384 -0.09765625 67.08984375 C-0.09579217 65.16313209 -0.09436822 63.23641995 -0.09336853 61.30970764 C-0.08954259 56.22812603 -0.07971166 51.1465728 -0.06866455 46.06500244 C-0.05845206 40.88383366 -0.05387126 35.70266031 -0.04882812 30.52148438 C-0.03808946 20.34764375 -0.02101213 10.17382423 0 0 Z " fill="#F8FBFC" transform="translate(567,757)"/>
<path d="M0 0 C7.81452752 -0.02526563 15.62904458 -0.04283105 23.44360352 -0.05493164 C26.10441481 -0.05997383 28.76522332 -0.06680736 31.42602539 -0.07543945 C35.24105516 -0.08751009 39.05604844 -0.09322929 42.87109375 -0.09765625 C44.66793861 -0.10539818 44.66793861 -0.10539818 46.50108337 -0.11329651 C48.15268211 -0.11340981 48.15268211 -0.11340981 49.83764648 -0.11352539 C50.81249496 -0.115746 51.78734344 -0.11796661 52.79173279 -0.12025452 C55 0 55 0 56 1 C56 5.95 56 10.9 56 16 C43.46 16 30.92 16 18 16 C18.495 24.415 18.495 24.415 19 33 C21.97966797 33.07347656 21.97966797 33.07347656 25.01953125 33.1484375 C26.94573929 33.20406806 28.87194605 33.25976598 30.7980957 33.31738281 C32.7929536 33.37444092 34.7880854 33.42164442 36.78320312 33.46875 C38.03681641 33.50742187 39.29042969 33.54609375 40.58203125 33.5859375 C41.73936768 33.6173584 42.8967041 33.6487793 44.08911133 33.68115234 C47 34 47 34 50 36 C50.328125 39.22265625 50.328125 39.22265625 50.25 43.0625 C50.23453125 44.33222656 50.2190625 45.60195313 50.203125 46.91015625 C50 50 50 50 49 51 C46.70848583 51.08790975 44.41427476 51.10694038 42.12109375 51.09765625 C40.86482178 51.09515869 39.6085498 51.09266113 38.31420898 51.09008789 C36.70489502 51.08098389 35.09558105 51.07187988 33.4375 51.0625 C28.343125 51.041875 23.24875 51.02125 18 51 C18 62.88 18 74.76 18 87 C12.39 87 6.78 87 1 87 C-0.78857062 85.21142938 -0.11990579 82.79876866 -0.12442017 80.41790771 C-0.12082489 79.61733948 -0.11722961 78.81677124 -0.11352539 77.99194336 C-0.11367142 77.15299026 -0.11381744 76.31403717 -0.1139679 75.44966125 C-0.1132685 72.66302956 -0.10547485 69.87646384 -0.09765625 67.08984375 C-0.09579217 65.16313209 -0.09436822 63.23641995 -0.09336853 61.30970764 C-0.08954259 56.22812603 -0.07971166 51.1465728 -0.06866455 46.06500244 C-0.05845206 40.88383366 -0.05387126 35.70266031 -0.04882812 30.52148438 C-0.03808946 20.34764375 -0.02101213 10.17382423 0 0 Z " fill="#F8FBFC" transform="translate(749,757)"/>
<path d="M0 0 C9.10959165 -0.02312545 18.21917326 -0.04091612 27.3287878 -0.05181217 C31.55831371 -0.05704056 35.7878196 -0.0641374 40.01733398 -0.07543945 C44.09568543 -0.08626991 48.17401757 -0.09227717 52.25238228 -0.09487724 C53.81177639 -0.09673121 55.3711694 -0.10035127 56.93055534 -0.10573006 C59.10729162 -0.11294262 61.28394714 -0.11399085 63.46069336 -0.11352539 C65.32267616 -0.11685631 65.32267616 -0.11685631 67.22227478 -0.12025452 C70 0 70 0 71 1 C71.07320163 3.5327765 71.09227569 6.03103918 71.0625 8.5625 C71.041875 11.016875 71.02125 13.47125 71 16 C62.42 16 53.84 16 45 16 C45.00523682 18.115271 45.01047363 20.23054199 45.01586914 22.40991211 C45.0324064 29.3828656 45.04347177 36.35581993 45.05181217 43.3287878 C45.05704056 47.55831371 45.0641374 51.7878196 45.07543945 56.01733398 C45.08626991 60.09568543 45.09227717 64.17401757 45.09487724 68.25238228 C45.09673121 69.81177639 45.10035127 71.3711694 45.10573006 72.93055534 C45.11294262 75.10729162 45.11399085 77.28394714 45.11352539 79.46069336 C45.115746 80.70201523 45.11796661 81.9433371 45.12025452 83.22227478 C45 86 45 86 44 87 C41.15664952 87.09986975 38.34302837 87.13877881 35.5 87.125 C34.30310547 87.13080078 34.30310547 87.13080078 33.08203125 87.13671875 C27.12660767 87.12660767 27.12660767 87.12660767 26 86 C25.87603129 83.85331715 25.8219928 81.70257613 25.79467773 79.55249023 C25.78477814 78.87934784 25.77487854 78.20620544 25.76467896 77.51266479 C25.73298162 75.27801075 25.70827426 73.04333542 25.68359375 70.80859375 C25.66303131 69.26302016 25.64203504 67.71745228 25.62062073 66.17189026 C25.56532663 62.09649268 25.51594987 58.02104375 25.46777344 53.94555664 C25.41761183 49.7898296 25.36189796 45.63417748 25.30664062 41.47851562 C25.19896936 33.3190737 25.09754448 25.15956924 25 17 C24.28344238 16.98018066 23.56688477 16.96036133 22.82861328 16.93994141 C19.5936937 16.84490481 16.35943906 16.73513981 13.125 16.625 C11.99707031 16.5940625 10.86914062 16.563125 9.70703125 16.53125 C8.09248047 16.47324219 8.09248047 16.47324219 6.4453125 16.4140625 C5.45031738 16.3826416 4.45532227 16.3512207 3.43017578 16.31884766 C1 16 1 16 -1 14 C-0.9765625 10.7421875 -0.9765625 10.7421875 -0.625 6.875 C-0.51414062 5.59367188 -0.40328125 4.31234375 -0.2890625 2.9921875 C-0.19367188 2.00476563 -0.09828125 1.01734375 0 0 Z " fill="#F7FAFB" transform="translate(484,757)"/>
<path d="M0 0 C5.82071622 -0.02464638 11.64140234 -0.0428343 17.4621582 -0.05493164 C19.44393441 -0.05997267 21.42570689 -0.06680538 23.4074707 -0.07543945 C26.24952109 -0.08751515 29.09152247 -0.09323045 31.93359375 -0.09765625 C32.82525742 -0.10281754 33.71692108 -0.10797882 34.63560486 -0.11329651 C36.75740601 -0.11349177 38.8791078 -0.0621003 41 0 C42 1 42 1 42.09765625 3.72265625 C42.06510417 6.81510417 42.03255208 9.90755208 42 13 C36.06 13.495 36.06 13.495 30 14 C30.33 33.14 30.66 52.28 31 72 C33.97 72.33 36.94 72.66 40 73 C42 75 42 75 42.1953125 77.8203125 C42.17210937 78.91085937 42.14890625 80.00140625 42.125 81.125 C42.10695313 82.22070312 42.08890625 83.31640625 42.0703125 84.4453125 C42.04710937 85.28835938 42.02390625 86.13140625 42 87 C36.19759432 87.02467332 30.39521902 87.04284724 24.59277344 87.05493164 C22.61783313 87.0599681 20.64289657 87.06679751 18.66796875 87.07543945 C15.83332395 87.08753508 12.99872834 87.0932351 10.1640625 87.09765625 C9.27756012 87.10281754 8.39105774 87.10797882 7.47769165 87.11329651 C1.22774341 87.11387171 1.22774341 87.11387171 -1 86 C-1.08121924 84.39667209 -1.13929134 82.79215974 -1.1875 81.1875 C-1.22230469 80.29417969 -1.25710937 79.40085937 -1.29296875 78.48046875 C-1 76 -1 76 0.1940918 74.35668945 C2.62516554 72.53034407 4.18329508 72.69545306 7.1875 72.8125 C8.08855469 72.83957031 8.98960937 72.86664062 9.91796875 72.89453125 C10.94857422 72.94673828 10.94857422 72.94673828 12 73 C11.89264243 65.45491816 11.78003875 57.90993031 11.66066074 50.36502934 C11.60540045 46.86195645 11.55197566 43.35887527 11.50268555 39.85571289 C11.44599332 35.83209856 11.38142599 31.80864469 11.31640625 27.78515625 C11.29969376 26.52163834 11.28298126 25.25812042 11.26576233 23.95631409 C11.24581711 22.795186 11.22587189 21.63405792 11.20532227 20.43774414 C11.18977798 19.40960098 11.1742337 18.38145782 11.15821838 17.32215881 C11.25828129 15.03914647 11.25828129 15.03914647 10 14 C7.41977858 13.71778828 4.83969815 13.55179803 2.25 13.37890625 C1.5075 13.25386719 0.765 13.12882813 0 13 C-1.18306728 10.63386544 -1.13354608 9.13219264 -1.125 6.5 C-1.12757813 5.7059375 -1.13015625 4.911875 -1.1328125 4.09375 C-1 2 -1 2 0 0 Z " fill="#F8FBFC" transform="translate(252,757)"/>
<path d="M0 0 C6.17578017 4.36823476 7.99191548 9.65639887 9.5625 16.8125 C9.96161328 20.82353788 9.98350545 24.78446719 9.9375 28.8125 C9.94910156 29.82828125 9.96070313 30.8440625 9.97265625 31.890625 C9.94536231 38.98704924 9.73985892 47.21629528 4.81787109 52.78710938 C-0.14172556 57.27350947 -4.28680499 58.11360081 -10.87109375 58.02734375 C-15.76587971 57.61758237 -19.20099969 55.65556839 -23.1875 52.9375 C-29.97616552 43.50879789 -29.50145033 29.19406425 -28.0859375 18.04296875 C-26.77999607 11.5464635 -24.78652791 5.06025746 -19.4375 0.8125 C-13.18420969 -2.1490242 -6.51033573 -2.24902507 0 0 Z " fill="#141D37" transform="translate(861.4375,772.1875)"/>
<path d="M0 0 C1.04317383 -0.01836914 1.04317383 -0.01836914 2.10742188 -0.03710938 C6.81411241 -0.05029338 10.84565519 0.53352976 15.3125 2.1875 C18.34135387 6.1934035 18.88663509 10.16399369 18.74609375 15.06640625 C18.04506013 18.49578691 15.98655214 20.10043492 13.3125 22.1875 C12.9825 22.5175 12.6525 22.8475 12.3125 23.1875 C10.76294441 23.28649523 9.20896327 23.31829524 7.65625 23.3203125 C6.24666016 23.32224609 6.24666016 23.32224609 4.80859375 23.32421875 C3.81988281 23.32035156 2.83117187 23.31648437 1.8125 23.3125 C0.82378906 23.31636719 -0.16492188 23.32023438 -1.18359375 23.32421875 C-2.12332031 23.32292969 -3.06304688 23.32164062 -4.03125 23.3203125 C-4.89943359 23.31918457 -5.76761719 23.31805664 -6.66210938 23.31689453 C-8.6875 23.1875 -8.6875 23.1875 -9.6875 22.1875 C-9.77435603 20.62577255 -9.79452219 19.06020656 -9.78515625 17.49609375 C-9.78193359 16.55185547 -9.77871094 15.60761719 -9.77539062 14.63476562 C-9.76701172 13.64154297 -9.75863281 12.64832031 -9.75 11.625 C-9.74548828 10.62791016 -9.74097656 9.63082031 -9.73632812 8.60351562 C-9.72450007 6.13145151 -9.70801849 3.65950482 -9.6875 1.1875 C-6.60561519 -0.3534424 -3.37877677 0.00304669 0 0 Z " fill="#141D37" transform="translate(932.6875,771.8125)"/>
<path d="M0 0 C1.97005257 0.00424484 1.97005257 0.00424484 3.97990417 0.00857544 C7.42396055 0.01610884 10.86784057 0.03566488 14.31182861 0.0579834 C17.84523129 0.07866753 21.37866325 0.08762473 24.91210938 0.09765625 C31.80996698 0.11892374 38.70770934 0.1529304 45.60546875 0.1953125 C46.10046875 1.6803125 46.10046875 1.6803125 46.60546875 3.1953125 C45.81334991 3.20561996 45.02123108 3.21592743 44.20510864 3.22654724 C36.70292362 3.32493931 29.20081237 3.42750887 21.69874763 3.53465176 C17.84281131 3.58957726 13.98686711 3.64294486 10.13085938 3.69262695 C6.40253706 3.74072332 2.67429561 3.79307542 -1.05392838 3.84825325 C-2.46909672 3.8684739 -3.88428704 3.8872174 -5.2994957 3.90438652 C-13.04950256 3.99943439 -20.69951271 4.22894317 -28.39453125 5.1953125 C-28.06453125 4.2053125 -27.73453125 3.2153125 -27.39453125 2.1953125 C-18.19016983 0.49974852 -9.34798813 -0.0774857 0 0 Z " fill="#485267" transform="translate(487.39453125,545.8046875)"/>
<path d="M0 0 C8.87554799 -0.0696524 17.75100121 -0.12288837 26.62676334 -0.15543652 C30.74858855 -0.17106166 34.87022612 -0.19224189 38.99194336 -0.22631836 C42.97308116 -0.25902487 46.95403899 -0.27687671 50.93530083 -0.28463173 C52.45068632 -0.29015505 53.96606249 -0.3009407 55.48137093 -0.31719017 C57.61157283 -0.33911542 59.74104048 -0.34196076 61.87133789 -0.34057617 C63.68668785 -0.35056892 63.68668785 -0.35056892 65.53871155 -0.36076355 C69.61751469 0.06436239 72.32751366 1.22208856 76 3 C76 3.99 76 4.98 76 6 C74.48520302 5.51486435 74.48520302 5.51486435 72.93980408 5.01992798 C69.24214175 3.96825887 65.81913173 3.72423611 61.96313477 3.68115234 C61.29886978 3.67110672 60.6346048 3.6610611 59.95021057 3.65071106 C57.78061699 3.62011431 55.61114541 3.60291043 53.44140625 3.5859375 C51.9268236 3.56720684 50.41225118 3.54763204 48.89768982 3.5272522 C44.93089858 3.47612519 40.96407359 3.43639612 36.99713135 3.39910889 C32.94136334 3.35894673 28.88573342 3.30791037 24.83007812 3.2578125 C16.8868134 3.1612836 8.94347981 3.07680589 1 3 C0.67 2.01 0.34 1.02 0 0 Z " fill="#475166" transform="translate(708,546)"/>
<path d="M0 0 C7.02507448 -0.07671308 14.05003904 -0.12887529 21.07543945 -0.16479492 C23.46024614 -0.1797856 25.84502572 -0.20018499 28.22973633 -0.22631836 C53.66925546 -0.49791465 53.66925546 -0.49791465 64 3 C64 3.99 64 4.98 64 6 C62.845 5.690625 61.69 5.38125 60.5 5.0625 C48.51148638 2.4738623 36.01002852 2.90636955 23.8125 2.875 C22.5541333 2.87032715 21.2957666 2.8656543 19.99926758 2.86083984 C7.92421172 2.88139044 -3.43402971 3.31465075 -15 7 C-14 5 -14 5 -12.109375 4.1484375 C-4.28930818 1.58490566 -4.28930818 1.58490566 0 2 C0 1.34 0 0.68 0 0 Z " fill="#3B455B" transform="translate(596,496)"/>
<path d="M0 0 C0.82543304 -0.0033284 1.65086609 -0.0066568 2.50131226 -0.01008606 C4.25493817 -0.01516163 6.00857378 -0.01749419 7.76220703 -0.01733398 C10.42887696 -0.01950515 13.09512295 -0.03761116 15.76171875 -0.05664062 C17.46614442 -0.0595776 19.17057206 -0.06156036 20.875 -0.0625 C22.06290634 -0.07327827 22.06290634 -0.07327827 23.27481079 -0.08427429 C28.16920211 -0.06438316 32.19037636 0.61057543 36.8359375 2.16796875 C36.8359375 2.49796875 36.8359375 2.82796875 36.8359375 3.16796875 C18.6859375 3.16796875 0.5359375 3.16796875 -18.1640625 3.16796875 C-18.1640625 2.83796875 -18.1640625 2.50796875 -18.1640625 2.16796875 C-17.20693359 2.07708984 -17.20693359 2.07708984 -16.23046875 1.984375 C-14.99103516 1.85869141 -14.99103516 1.85869141 -13.7265625 1.73046875 C-12.90285156 1.64925781 -12.07914063 1.56804687 -11.23046875 1.484375 C-1.55022894 0.00214546 -1.55022894 0.00214546 0 0 Z " fill="#4A5469" transform="translate(612.1640625,479.83203125)"/>
<path d="M0 0 C4.4288008 2.49120045 8.74990288 5.07773756 13.0078125 7.8515625 C22.76581923 13.47676638 34.20959258 12.13125239 45 11 C44 13 44 13 41.4296875 14.0859375 C29.30057071 17.31852671 19.14664104 15.24496035 8.390625 9.23828125 C5.13770861 7.22651384 2.51825894 4.89792012 0 2 C0 1.34 0 0.68 0 0 Z " fill="#C7CDD6" transform="translate(592,436)"/>
<path d="M0 0 C0.93779297 0.48919922 0.93779297 0.48919922 1.89453125 0.98828125 C6.1984298 2.39043185 10.19176191 2.25398042 14.6875 2.1875 C15.57856445 2.18105469 16.46962891 2.17460937 17.38769531 2.16796875 C23.31092485 2.09866588 29.12367636 1.78350982 35 1 C34 3 34 3 31.734375 3.8515625 C19.51295772 7.01889316 9.06673102 6.65263209 -3 3 C-2.01 2.67 -1.02 2.34 0 2 C0 1.34 0 0.68 0 0 Z " fill="#414B60" transform="translate(491,506)"/>
<path d="M0 0 C0.77988281 0.31324219 1.55976562 0.62648438 2.36328125 0.94921875 C6.99117106 2.28638562 11.39163677 2.58802004 16.1875 2.8125 C17.11844482 2.85818115 18.04938965 2.9038623 19.00854492 2.95092773 C25.75423028 3.18240022 31.69862811 2.61204408 38 0 C34.19002975 4.54902803 28.60955107 5.07562703 23 6 C15.02271184 6.57353052 7.70617828 6.12584228 0 4 C0 2.68 0 1.36 0 0 Z " fill="#485267" transform="translate(721,506)"/>
<path d="M0 0 C7.05506082 0.03125165 13.47212169 1.38636079 20.25 3.25 C20.25 4.24 20.25 5.23 20.25 6.25 C19.095 5.940625 17.94 5.63125 16.75 5.3125 C11.41990631 4.09297456 6.10726246 3.85725917 0.66015625 3.67993164 C-4.540731 3.459269 -4.540731 3.459269 -6.75 1.25 C-4.96308934 -0.53691066 -2.41796771 0.03470767 0 0 Z " fill="#465065" transform="translate(639.75,495.75)"/>
<path d="M0 0 C0.66 0 1.32 0 2 0 C2 0.66 2 1.32 2 2 C2.9075 2.061875 3.815 2.12375 4.75 2.1875 C14.61635756 3.59410902 24.25853834 8.73996437 31 16 C30.67 16.66 30.34 17.32 30 18 C29.67 17.01 29.34 16.02 29 15 C28.31550781 14.90847656 27.63101563 14.81695313 26.92578125 14.72265625 C23.29943637 13.82696359 20.44952692 12.24973718 17.1875 10.4375 C16.2912793 9.9434668 16.2912793 9.9434668 15.37695312 9.43945312 C13.91466002 8.63226733 12.4568601 7.81695083 11 7 C11 6.34 11 5.68 11 5 C7.7 4.34 4.4 3.68 1 3 C0.67 2.01 0.34 1.02 0 0 Z " fill="#ABB2BE" transform="translate(552,531)"/>
<path d="M0 0 C4.02299817 0.98338721 7.97861865 2.1624347 11.9375 3.375 C12.64068359 3.58382813 13.34386719 3.79265625 14.06835938 4.0078125 C18.03467523 5.22707361 21.6582233 6.44952463 25 9 C25 9.99 25 10.98 25 12 C23.56720703 11.41992188 23.56720703 11.41992188 22.10546875 10.828125 C14.45222245 7.74141822 6.78225458 4.75048499 -1 2 C-0.67 1.34 -0.34 0.68 0 0 Z " fill="#BBC2CC" transform="translate(649,482)"/>
<path d="M0 0 C0.99 0.99 1.98 1.98 3 3 C1.40084119 3.69906942 -0.20455045 4.38389468 -1.8125 5.0625 C-2.70582031 5.44535156 -3.59914063 5.82820312 -4.51953125 6.22265625 C-7 7 -7 7 -10 6 C-6.98112756 2.51668565 -4.43090471 1.20842856 0 0 Z M-12 6 C-10 7 -10 7 -10 7 Z M-15 7 C-14.01 7.33 -13.02 7.66 -12 8 C-12.99 8.33 -13.98 8.66 -15 9 C-15 8.34 -15 7.68 -15 7 Z M-18 9 C-17.01 9.33 -16.02 9.66 -15 10 C-15.99 10.33 -16.98 10.66 -18 11 C-18 10.34 -18 9.68 -18 9 Z M-20 11 C-19.34 11 -18.68 11 -18 11 C-19.29299694 13.88437779 -20.65941363 15.87219421 -23 18 C-23.66 17.67 -24.32 17.34 -25 17 C-23.38405168 14.95880212 -21.7143618 12.95927063 -20 11 Z " fill="#E0E5EA" transform="translate(460,534)"/>
<path d="M0 0 C1.28390625 -0.01417969 2.5678125 -0.02835937 3.890625 -0.04296875 C7.89828876 0.1963553 10.960452 0.94558854 14.75 2.1875 C14.75 2.8475 14.75 3.5075 14.75 4.1875 C6.5 3.8575 -1.75 3.5275 -10.25 3.1875 C-10.25 2.5275 -10.25 1.8675 -10.25 1.1875 C-6.68450163 -0.00099946 -3.75898083 0.01872002 0 0 Z " fill="#CDD3DB" transform="translate(506.25,403.8125)"/>
<path d="M0 0 C0.886875 0.165 1.77375 0.33 2.6875 0.5 C12.58199824 1.97519811 12.58199824 1.97519811 22 0 C22 0.66 22 1.32 22 2 C23.32 1.67 24.64 1.34 26 1 C25.67 1.66 25.34 2.32 25 3 C21.19014895 4.26995035 17.59390381 4.18414789 13.625 4.1875 C12.86960937 4.19974609 12.11421875 4.21199219 11.3359375 4.22460938 C7.09652181 4.23572672 3.87019821 3.95051822 0 2 C0 1.34 0 0.68 0 0 Z " fill="#D4D9E0" transform="translate(724,494)"/>
<path d="M0 0 C4.09705274 1.40836188 7.45754726 3.50468144 11.0703125 5.8359375 C13.09081265 7.12891124 13.09081265 7.12891124 15.875 8.125 C18 9 18 9 20 12 C11.71752733 11.17175273 5.5055926 6.87919445 -1 2 C-0.67 1.34 -0.34 0.68 0 0 Z " fill="#414B61" transform="translate(588,450)"/>
<path d="M0 0 C8.56433512 0.88162273 15.19898507 6.61194224 20.6875 13 C21.450625 13.99 22.21375 14.98 23 16 C22.34 16.66 21.68 17.32 21 18 C20.59910156 17.50371094 20.19820312 17.00742187 19.78515625 16.49609375 C14.22630536 9.85320391 8.26593993 3.9873397 0 1 C0 0.67 0 0.34 0 0 Z " fill="#4C566B" transform="translate(790,538)"/>
<path d="M0 0 C0.66 0.33 1.32 0.66 2 1 C4.88370333 1.07194869 7.74239664 1.09291708 10.625 1.0625 C11.42679687 1.05798828 12.22859375 1.05347656 13.0546875 1.04882812 C15.03649006 1.03703168 17.01825433 1.01909605 19 1 C19.33 1.66 19.66 2.32 20 3 C16.87240007 4.56379996 13.50147593 4.46065462 10.0625 4.6875 C9.33353516 4.74744141 8.60457031 4.80738281 7.85351562 4.86914062 C3.94638518 5.13057098 2.34750622 5.23167081 -1 3 C-0.67 2.01 -0.34 1.02 0 0 Z " fill="#D3D8DF" transform="translate(497,494)"/>
<path d="M0 0 C2.06242617 -0.02717692 4.12495703 -0.0464758 6.1875 -0.0625 C7.33605469 -0.07410156 8.48460937 -0.08570313 9.66796875 -0.09765625 C12.59300586 -0.01192832 15.16316291 0.32150977 18 1 C18 1.66 18 2.32 18 3 C11.07 3 4.14 3 -3 3 C-2.01 2.67 -1.02 2.34 0 2 C0 1.34 0 0.68 0 0 Z " fill="#D1D7DE" transform="translate(730,404)"/>
<path d="M0 0 C-1 2 -1 2 -3.625 3.125 C-9.00643103 4.52018582 -13.1083854 4.69145607 -18 2 C-16.12612523 1.6603981 -14.25083303 1.32861309 -12.375 1 C-11.33085938 0.814375 -10.28671875 0.62875 -9.2109375 0.4375 C-6.09425135 0.01284203 -3.14069188 -0.07545206 0 0 Z " fill="#D1D6DE" transform="translate(637,447)"/>
<path d="M0 0 C5.94 0 11.88 0 18 0 C18 0.99 18 1.98 18 3 C12.06 2.67 6.12 2.34 0 2 C0 1.34 0 0.68 0 0 Z " fill="#303951" transform="translate(499,418)"/>
<path d="M0 0 C5.58575 1.63848667 10.46141764 3.27603499 15 7 C15 7.99 15 8.98 15 10 C10.05 7.36 5.1 4.72 0 2 C0 1.34 0 0.68 0 0 Z " fill="#CCD1D9" transform="translate(522,407)"/>
<path d="M0 0 C2.45840605 -0.02691685 4.91651882 -0.04679802 7.375 -0.0625 C8.07367187 -0.07087891 8.77234375 -0.07925781 9.4921875 -0.08789062 C14.7734375 -0.11328125 14.7734375 -0.11328125 17 1 C17 1.66 17 2.32 17 3 C11.39 2.67 5.78 2.34 0 2 C0 1.34 0 0.68 0 0 Z " fill="#333D54" transform="translate(731,418)"/>
<path d="M0 0 C4.66666667 4 9.33333333 8 14 12 C12.29296875 12.76171875 12.29296875 12.76171875 10 13 C7.67578125 11.26953125 7.67578125 11.26953125 5.3125 8.8125 C4.52488281 8.01457031 3.73726562 7.21664063 2.92578125 6.39453125 C1.09870849 4.12273489 0.38534893 2.84113195 0 0 Z " fill="#B3BAC5" transform="translate(703,478)"/>
<path d="M0 0 C2.01906808 0.09416778 4.04124313 0.12991192 6.0625 0.125 C7.12597656 0.12757813 8.18945312 0.13015625 9.28515625 0.1328125 C11.96704384 0.18438455 11.96704384 0.18438455 14 -1 C16.125 -0.0625 16.125 -0.0625 18 1 C13.82171361 2.39276213 9.87575966 2.18424906 5.5 2.1875 C4.19869141 2.20586914 4.19869141 2.20586914 2.87109375 2.22460938 C2.03707031 2.22654297 1.20304688 2.22847656 0.34375 2.23046875 C-0.41744141 2.23457764 -1.17863281 2.23868652 -1.96289062 2.24291992 C-4 2 -4 2 -7 0 C-3.98968256 -0.93423645 -3.13349732 -1.04449911 0 0 Z " fill="#BEC4CE" transform="translate(616,460)"/>
<path d="M0 0 C0 0.99 0 1.98 0 3 C-4.62 2.01 -9.24 1.02 -14 0 C-14 -0.66 -14 -1.32 -14 -2 C-8.87160006 -3.81975482 -4.82315618 -1.8599099 0 0 Z " fill="#465066" transform="translate(563,549)"/>
<path d="M0 0 C0.99 0.99 1.98 1.98 3 3 C1.3789897 3.69685498 -0.24696066 4.38222861 -1.875 5.0625 C-2.77992188 5.44535156 -3.68484375 5.82820312 -4.6171875 6.22265625 C-7 7 -7 7 -9 6 C-7.87626904 5.18574575 -6.7509687 4.37365704 -5.625 3.5625 C-4.99851562 3.11003906 -4.37203125 2.65757812 -3.7265625 2.19140625 C-2 1 -2 1 0 0 Z " fill="#CACFD8" transform="translate(460,534)"/>
<path d="M0 0 C3.59634744 3.49359465 6.83451967 7.11098131 10 11 C5.75153925 10.52794881 3.73180712 8.11122478 1 5 C1 4.34 1 3.68 1 3 C0.34 2.67 -0.32 2.34 -1 2 C-0.67 1.34 -0.34 0.68 0 0 Z " fill="#BDC3CE" transform="translate(695,487)"/>
<path d="M0 0 C2.58789062 1.12304688 2.58789062 1.12304688 5.17578125 2.24609375 C6.75711021 2.89961942 8.37675406 3.45891802 10 4 C9.67 4.99 9.34 5.98 9 7 C4.545 5.02 4.545 5.02 0 3 C0 2.01 0 1.02 0 0 Z " fill="#C2C8D2" transform="translate(665,487)"/>
<path d="M0 0 C2.69082872 0.17635452 5.32851446 0.61835921 8 1 C8 1.66 8 2.32 8 3 C9.32 3.33 10.64 3.66 12 4 C10.39667209 4.08121924 8.79215974 4.13929134 7.1875 4.1875 C6.29417969 4.22230469 5.40085937 4.25710938 4.48046875 4.29296875 C1.58352485 3.95081002 0.77444972 3.24606427 -1 1 C-0.67 0.67 -0.34 0.34 0 0 Z " fill="#C2C8D2" transform="translate(611,447)"/>
</svg>
